<svg width="400" height="400" viewBox="0 0 400 400" fill="none" xmlns="http://www.w3.org/2000/svg">
  <defs>
    <linearGradient id="a" x1="0" y1="0" x2="1" y2="1">
      <stop offset="0%" stop-color="#38bdf8" stop-opacity="0.8" />
      <stop offset="100%" stop-color="#6366f1" stop-opacity="0.4" />
    </linearGradient>
  </defs>
  <g opacity="0.8">
    <path d="M20 40C120 20 160 120 260 100C340 84 360 20 380 40" stroke="url(#a)" stroke-width="2" stroke-linecap="round" />
    <path d="M20 120C120 100 160 200 260 180C340 164 360 100 380 120" stroke="url(#a)" stroke-width="2" stroke-linecap="round" />
    <path d="M20 200C120 180 160 280 260 260C340 244 360 180 380 200" stroke="url(#a)" stroke-width="2" stroke-linecap="round" />
    <path d="M20 280C120 260 160 360 260 340C340 324 360 260 380 280" stroke="url(#a)" stroke-width="2" stroke-linecap="round" />
  </g>
  <circle cx="320" cy="60" r="6" fill="#38bdf8" opacity="0.65" />
  <circle cx="280" cy="340" r="5" fill="#6366f1" opacity="0.7" />
  <circle cx="60" cy="200" r="4" fill="#14b8a6" opacity="0.7" />
</svg>
